<svg xmlns="http://www.w3.org/2000/svg" xmlns:xlink="http://www.w3.org/1999/xlink" width="500" zoomAndPan="magnify" viewBox="0 0 375 374.999991" height="500" preserveAspectRatio="xMidYMid meet" version="1.2"><defs><clipPath id="bb53756235"><path d="M 0 65.320312 L 321 65.320312 L 321 375 L 0 375 Z M 0 65.320312 "/></clipPath></defs><g id="8225184d4b"><rect x="0" width="375" y="0" height="374.999991" style="fill:#ffffff;fill-opacity:1;stroke:none;"/><rect x="0" width="375" y="0" height="374.999991" style="fill:#eceada;fill-opacity:1;stroke:none;"/><g clip-rule="nonzero" clip-path="url(#bb53756235)"><path style=" stroke:none;fill-rule:nonzero;fill:#eceada;fill-opacity:1;" d="M 320.769531 90.824219 L 320.769531 349.453125 C 320.769531 363.449219 309.421875 374.789062 295.433594 374.789062 L 25.335938 374.789062 C 11.347656 374.796875 0 363.457031 0 349.460938 L 0 90.824219 C 0 76.835938 11.347656 65.488281 25.335938 65.488281 L 295.425781 65.488281 C 309.425781 65.488281 320.769531 76.835938 320.769531 90.824219 Z M 320.769531 90.824219 "/></g><path style=" stroke:none;fill-rule:nonzero;fill:#ffffff;fill-opacity:1;" d="M 200.890625 180.894531 C 201.222656 158.652344 216.089844 140.640625 210.773438 120.757812 C 205.449219 100.875 177.253906 91.398438 138.34375 98.015625 C 138.34375 98.015625 99.664062 108.125 100.195312 128.710938 C 100.722656 149.292969 112.726562 165.757812 113.207031 184.757812 C 113.695312 203.761719 113.390625 254.082031 109.945312 272.125 C 106.5 290.171875 98.878906 329.65625 124.980469 338.988281 C 151.070312 348.3125 199.878906 352.328125 207.15625 319.695312 C 214.4375 287.058594 206.351562 264.863281 205.890625 246.8125 C 205.421875 228.765625 200.726562 191.917969 200.890625 180.894531 Z M 118.570312 240.242188 C 114.085938 240.546875 113.351562 231.566406 113.351562 231.566406 C 137.9375 222.34375 133.039062 235.683594 132.242188 237.917969 C 131.445312 240.148438 123.046875 239.941406 118.570312 240.242188 Z M 136.71875 311.621094 C 134.871094 313.382812 129.285156 312.082031 125.9375 310.941406 C 122.585938 309.800781 125.9375 299.558594 125.9375 299.558594 C 125.9375 299.558594 132.371094 301.3125 136.710938 302.496094 C 141.050781 303.679688 140.550781 310.15625 136.71875 311.621094 Z M 198.132812 155.824219 C 195.191406 159.003906 188.785156 159.195312 188.785156 159.195312 C 183.328125 154.015625 175.878906 146.445312 181.703125 140.578125 C 186.628906 135.621094 197.480469 144.320312 199.5 146.328125 C 199.5 146.335938 200.472656 153.308594 198.132812 155.824219 Z M 198.132812 155.824219 "/><path style=" stroke:none;fill-rule:nonzero;fill:#e95a5a;fill-opacity:1;" d="M 208.539062 270.207031 C 207.402344 261.535156 206.070312 253.859375 205.890625 246.820312 C 205.457031 229.84375 201.277344 196.25 200.910156 183.140625 C 198.367188 184.105469 194.144531 185.632812 190.273438 187.796875 C 190.238281 186.855469 190.222656 186.011719 190.230469 185.300781 C 190.308594 176.871094 192.402344 169.132812 194.441406 161.652344 C 195.917969 156.203125 197.347656 150.921875 197.96875 145.59375 C 197.71875 145.667969 197.183594 145.855469 196.503906 146.171875 C 195.855469 151.171875 194.5 156.15625 193.105469 161.292969 C 191.050781 168.863281 188.917969 176.683594 188.847656 185.292969 C 188.84375 186.210938 188.863281 187.316406 188.917969 188.597656 C 184.941406 191.050781 181.621094 194.226562 181.351562 198.238281 C 180.570312 209.941406 182.914062 222.824219 181.351562 239.605469 C 180.203125 251.929688 185.148438 257.015625 194.6875 262.746094 C 196.125 274.898438 197.398438 289.691406 194.027344 307.914062 C 192.5 316.160156 188.257812 322.179688 181.414062 325.808594 C 168.203125 332.816406 147.40625 329.550781 133.679688 323.546875 C 120.152344 317.632812 115.929688 297.945312 121.113281 265.015625 C 121.203125 264.457031 121.285156 263.859375 121.375 263.234375 C 129.121094 259.027344 137.289062 252.367188 136.164062 243.324219 C 134.070312 226.605469 135.996094 213.65625 134.847656 201.980469 C 134.324219 196.675781 129.671875 191.992188 124.78125 188.511719 C 124.773438 188.246094 124.765625 187.984375 124.761719 187.730469 C 124.546875 179.40625 122.304688 171.789062 119.933594 163.722656 C 117.546875 155.621094 115.082031 147.242188 114.851562 138.054688 C 114.410156 120.867188 141.601562 112.375 142.703125 112.039062 C 171.058594 106.757812 191.992188 114.753906 196.042969 132.421875 C 196.964844 136.445312 197.082031 140.371094 196.714844 144.277344 C 197.253906 144.726562 197.6875 145.117188 197.996094 145.421875 C 198.484375 141.054688 198.429688 136.660156 197.382812 132.113281 C 193.152344 113.660156 171.574219 105.25 142.414062 110.691406 L 142.34375 110.703125 C 141.148438 111.054688 112.992188 119.574219 113.46875 138.089844 C 113.707031 147.464844 116.199219 155.921875 118.613281 164.113281 C 120.9375 172.023438 123.136719 179.492188 123.378906 187.550781 C 118.652344 184.429688 114.050781 182.480469 113.046875 182.242188 C 113.117188 183.082031 113.183594 183.917969 113.207031 184.765625 C 113.207031 184.777344 113.207031 184.792969 113.207031 184.804688 C 113.660156 202.523438 113.425781 247.285156 110.613281 267.9375 C 112.71875 267.214844 116.171875 265.902344 119.875 264.019531 C 119.835938 264.28125 119.800781 264.542969 119.761719 264.789062 C 114.457031 298.410156 118.957031 318.601562 133.128906 324.800781 C 141.511719 328.464844 152.496094 331.121094 162.886719 331.121094 C 169.875 331.121094 176.59375 329.917969 182.066406 327.015625 C 189.300781 323.175781 193.785156 316.828125 195.390625 308.148438 C 198.703125 290.25 197.582031 275.65625 196.1875 263.613281 C 199.296875 265.414062 202.828125 267.320312 206.765625 269.5625 C 207.402344 269.925781 207.996094 270.125 208.539062 270.207031 Z M 113.351562 231.558594 C 132.902344 228.132812 132.785156 233.519531 131.988281 235.753906 C 131.191406 237.988281 124.574219 236.957031 120.097656 237.253906 C 115.613281 237.546875 113.351562 231.558594 113.351562 231.558594 Z M 181.230469 141.089844 C 180.90625 141.460938 180.625 141.835938 180.390625 142.210938 C 178.394531 139.265625 175.3125 137.1875 171.058594 135.773438 C 161.648438 132.636719 151.105469 134.046875 142.847656 139.546875 C 136.167969 143.996094 133.21875 149.464844 134.070312 155.796875 C 134.375 158.054688 134.753906 160.253906 135.21875 162.53125 L 133.871094 162.8125 C 133.398438 160.507812 133.011719 158.273438 132.703125 155.992188 C 131.789062 149.1875 135.027344 143.109375 142.078125 138.414062 C 150.6875 132.675781 161.683594 131.207031 171.492188 134.480469 C 176.085938 135.992188 179.191406 138.289062 181.230469 141.089844 Z M 133.804688 294.269531 C 133.625 297.105469 133.769531 299.601562 134.230469 301.816406 C 133.742188 301.683594 133.253906 301.546875 132.757812 301.417969 C 132.371094 299.25 132.257812 296.84375 132.429688 294.183594 Z M 182.867188 293.976562 L 184.234375 293.789062 C 185.148438 300.589844 181.910156 306.671875 174.859375 311.367188 C 169.277344 315.089844 162.679688 317.015625 156.066406 317.015625 C 152.480469 317.015625 148.890625 316.449219 145.453125 315.300781 C 142.324219 314.257812 139.785156 312.832031 137.800781 311.003906 C 138.164062 310.722656 138.480469 310.390625 138.75 310.027344 C 140.589844 311.707031 142.957031 313.019531 145.894531 313.996094 C 155.300781 317.132812 165.84375 315.722656 174.105469 310.21875 C 180.761719 305.769531 183.71875 300.308594 182.867188 293.976562 Z M 141.925781 290.289062 C 146.828125 295.046875 152.105469 296.828125 156.898438 296.828125 C 160.507812 296.828125 163.84375 295.820312 166.53125 294.304688 C 174.234375 289.964844 178.304688 281.210938 176.421875 273.015625 C 175.746094 270.0625 175.140625 267.503906 174.597656 265.207031 C 171.152344 250.613281 170.335938 247.148438 170.492188 225.945312 C 170.546875 218.746094 172.851562 210.652344 175.082031 202.832031 C 179.578125 187.0625 183.820312 172.167969 168.878906 167.179688 C 161.125 164.59375 152.433594 165.757812 145.625 170.289062 C 140.035156 174.015625 137.460938 178.84375 138.191406 184.25 C 138.78125 188.628906 139.585938 191.898438 140.445312 195.347656 C 142.226562 202.550781 144.070312 209.996094 144.222656 228.792969 C 144.304688 238.757812 142.105469 248.601562 140.164062 257.285156 C 137.089844 271.089844 134.429688 283.007812 141.925781 290.289062 Z M 145.613281 228.792969 C 145.460938 209.832031 143.597656 202.308594 141.792969 195.027344 C 140.949219 191.609375 140.152344 188.382812 139.566406 184.070312 C 138.90625 179.152344 141.203125 174.902344 146.402344 171.4375 C 150.589844 168.644531 155.535156 167.199219 160.492188 167.199219 C 163.175781 167.199219 165.871094 167.621094 168.449219 168.488281 C 182.144531 173.054688 178.265625 186.675781 173.765625 202.453125 C 171.511719 210.363281 169.179688 218.546875 169.125 225.933594 C 168.964844 247.300781 169.792969 250.800781 173.265625 265.523438 C 173.808594 267.816406 174.40625 270.375 175.085938 273.324219 C 176.828125 280.929688 173.039062 289.066406 165.863281 293.101562 C 158.3125 297.351562 149.722656 295.929688 142.894531 289.300781 C 135.949219 282.558594 138.535156 270.992188 141.527344 257.59375 C 143.472656 248.839844 145.695312 238.917969 145.613281 228.792969 Z M 181.863281 164.210938 C 182.796875 159.789062 183.242188 155.957031 183.203125 152.648438 C 183.648438 153.136719 184.117188 153.625 184.597656 154.105469 C 184.507812 157.503906 183.9375 161.039062 183.210938 164.492188 Z M 181.863281 164.210938 "/><path style=" stroke:none;fill-rule:nonzero;fill:#f2bf9c;fill-opacity:1;" d="M 79.753906 340.300781 C 63.167969 357.542969 62.054688 374.796875 62.054688 374.796875 L 25.335938 374.796875 C 22.515625 374.796875 19.804688 374.328125 17.277344 373.476562 L 44.910156 313.554688 C 44.910156 313.554688 66.941406 261.582031 70.195312 255.113281 C 72.796875 249.941406 81.660156 243.214844 85.746094 239.410156 C 89.773438 235.664062 89.003906 234.816406 95.378906 233.785156 C 101.492188 232.804688 107.78125 232.171875 113.398438 231.6875 C 113.75 232.542969 115.992188 237.519531 120.089844 237.246094 C 123.570312 237.011719 128.328125 237.582031 130.660156 236.796875 C 130.414062 240.183594 127.792969 243.386719 120.914062 244.679688 C 116.886719 245.4375 100.179688 248.648438 100.179688 248.648438 L 87.628906 265.691406 C 87.628906 265.75 87.628906 265.804688 87.621094 265.867188 C 87.4375 274.738281 92.457031 282.917969 100.242188 287.175781 C 102.65625 288.496094 105.132812 289.828125 107.214844 290.914062 C 112.320312 293.578125 118.949219 297.804688 125.832031 299.671875 C 125.851562 299.675781 125.867188 299.675781 125.886719 299.683594 C 125.515625 300.851562 122.792969 309.875 125.929688 310.941406 C 128.988281 311.980469 133.898438 313.148438 136.140625 312.007812 C 133.84375 314.691406 129.546875 316.78125 122.457031 315.246094 C 117.792969 314.234375 107.925781 310.441406 96.21875 314.863281 C 87.890625 318.003906 87.636719 331.25 79.753906 340.300781 Z M 271.050781 268.851562 C 265.804688 248.847656 258.933594 229.425781 261.582031 205.632812 C 264.222656 181.84375 267.910156 175.75 255.054688 167 C 242.210938 158.261719 227.992188 144.90625 218.910156 141.898438 L 207.78125 150.453125 C 202.644531 147.367188 198.800781 145.023438 195.761719 143.488281 C 196.832031 144.328125 197.671875 145.078125 198.125 145.53125 C 198.125 145.53125 195.011719 146.363281 192.671875 148.878906 C 189.730469 152.058594 187.953125 157.316406 187.953125 157.316406 C 184.652344 154.183594 180.925781 150.859375 179.785156 147.421875 C 178.628906 149.890625 178.847656 152.621094 180.03125 155.0625 C 182.300781 159.757812 189.015625 167.097656 193.582031 170.261719 C 198.148438 173.417969 200.746094 179.078125 200.746094 179.078125 C 200.746094 179.078125 206.199219 223.464844 208.539062 230.03125 C 212.347656 240.738281 223.136719 250.324219 223.136719 250.324219 C 230.945312 265.792969 231.941406 374.78125 231.941406 374.78125 L 295.433594 374.78125 C 297.351562 374.78125 299.222656 374.5625 301.015625 374.15625 C 299.023438 367.5 281.328125 308.058594 271.050781 268.851562 Z M 271.050781 268.851562 "/><path style=" stroke:none;fill-rule:nonzero;fill:#ef9373;fill-opacity:1;" d="M 227.4375 165.035156 L 206.757812 149.882812 L 211.144531 137.765625 C 213.398438 138.507812 215.394531 139.746094 218.910156 141.90625 C 212.671875 152.648438 227.4375 165.035156 227.4375 165.035156 Z M 224.976562 229.632812 C 217.273438 223.003906 213.421875 219.792969 210.898438 206.953125 C 208.710938 195.824219 201.40625 181.65625 199.5 178.074219 C 199.644531 178.347656 199.722656 178.519531 199.722656 178.519531 C 199.722656 178.519531 205.175781 222.921875 207.511719 229.496094 C 211.324219 240.203125 222.121094 249.796875 222.121094 249.796875 C 222.265625 250.085938 222.410156 250.414062 222.546875 250.765625 C 231.671875 246.648438 232.675781 236.269531 224.976562 229.632812 Z M 114.835938 241.734375 C 103.101562 239.335938 100.0625 246.101562 98.578125 247.589844 C 95.492188 250.675781 91.355469 251.054688 89.03125 254.371094 C 89.03125 254.371094 78.339844 268.0625 93.742188 282.464844 C 95.519531 284.375 97.609375 286.019531 99.960938 287.304688 C 102.375 288.625 105.140625 289.835938 107.230469 290.921875 C 107.4375 291.027344 107.640625 291.140625 107.847656 291.253906 L 110.902344 265.695312 C 110.902344 265.695312 103.597656 261.878906 100.1875 261.878906 C 98.703125 261.878906 94.65625 263.191406 90.785156 264.625 C 91.039062 262.589844 91.617188 260.621094 92.664062 258.875 L 94.039062 257.003906 L 100.1875 248.65625 C 100.1875 248.65625 116.886719 245.441406 120.921875 244.6875 C 125.707031 243.785156 128.433594 241.964844 129.726562 239.789062 C 129.671875 239.804688 124.875 243.792969 114.835938 241.734375 Z M 114.835938 241.734375 "/><g style="fill:#be3535;fill-opacity:1;"><g transform="translate(119.687724, 86.150205)"><path style="stroke:none" d="M 44.515625 -54.578125 L 47.40625 -40.859375 L 47.09375 -40.703125 C 45.113281 -43.609375 43.316406 -46 41.703125 -47.875 C 40.097656 -49.75 38.269531 -51.125 36.21875 -52 C 34.164062 -52.882812 31.445312 -53.328125 28.0625 -53.328125 L 17.78125 -53.328125 L 17.78125 -27.140625 L 25.03125 -27.140625 C 28.25 -27.140625 30.859375 -27.410156 32.859375 -27.953125 C 34.859375 -28.492188 36.429688 -29.441406 37.578125 -30.796875 C 38.722656 -32.148438 39.609375 -34.019531 40.234375 -36.40625 L 40.234375 -16.6875 C 39.609375 -19.070312 38.722656 -20.925781 37.578125 -22.25 C 36.429688 -23.582031 34.859375 -24.519531 32.859375 -25.0625 C 30.859375 -25.613281 28.25 -25.890625 25.03125 -25.890625 L 17.78125 -25.890625 L 17.78125 -4.4375 C 17.78125 -3.039062 18.363281 -2.066406 19.53125 -1.515625 C 20.695312 -0.972656 22.085938 -0.597656 23.703125 -0.390625 L 23.703125 0 L 1.171875 0 L 1.171875 -0.390625 C 2.785156 -0.960938 4.175781 -1.691406 5.34375 -2.578125 C 6.507812 -3.460938 7.09375 -4.601562 7.09375 -6 L 7.09375 -50.140625 C 7.09375 -51.535156 6.507812 -52.503906 5.34375 -53.046875 C 4.175781 -53.597656 2.785156 -53.976562 1.171875 -54.1875 L 1.171875 -54.578125 Z M 44.515625 -54.578125 "/></g></g><g style="fill:#be3535;fill-opacity:1;"><g transform="translate(168.653544, 86.150205)"><path style="stroke:none" d="M 16.140625 -7.5625 C 16.140625 -5.476562 16.398438 -3.851562 16.921875 -2.6875 C 17.441406 -1.519531 18.660156 -0.726562 20.578125 -0.3125 L 20.578125 0 L 5.53125 0 L 6.234375 -4.828125 L 6.234375 -51.21875 C 6.234375 -52.78125 5.6875 -53.5625 4.59375 -53.5625 C 3.507812 -53.5625 1.71875 -53.195312 -0.78125 -52.46875 L -0.78125 -52.9375 L 16.53125 -61.046875 L 16.140625 -57.546875 Z M 16.140625 -7.5625 "/></g></g><g style="fill:#be3535;fill-opacity:1;"><g transform="translate(190.407468, 86.150205)"><path style="stroke:none" d="M 43.578125 -2.5 C 44.148438 -2.132812 44.863281 -1.832031 45.71875 -1.59375 C 46.582031 -1.363281 47.328125 -1.195312 47.953125 -1.09375 L 47.953125 -0.78125 L 33.6875 0.390625 L 33.6875 -6.390625 C 32.488281 -5.453125 31.019531 -4.4375 29.28125 -3.34375 C 27.539062 -2.257812 25.601562 -1.335938 23.46875 -0.578125 C 21.332031 0.171875 19.070312 0.546875 16.6875 0.546875 C 15.539062 0.546875 14.304688 0.351562 12.984375 -0.03125 C 11.660156 -0.425781 10.425781 -1.128906 9.28125 -2.140625 C 8.132812 -3.160156 7.195312 -4.59375 6.46875 -6.4375 C 5.738281 -8.28125 5.375 -10.679688 5.375 -13.640625 L 5.375 -30.40625 C 5.375 -32.539062 5.113281 -34.085938 4.59375 -35.046875 C 4.082031 -36.003906 2.941406 -36.875 1.171875 -37.65625 L 1.171875 -37.8125 L 15.75 -37.8125 L 15.28125 -32.4375 L 15.28125 -13.796875 C 15.28125 -10.890625 15.59375 -8.664062 16.21875 -7.125 C 16.84375 -5.59375 17.644531 -4.539062 18.625 -3.96875 C 19.613281 -3.40625 20.679688 -3.125 21.828125 -3.125 C 24.328125 -3.125 26.535156 -3.664062 28.453125 -4.75 C 30.378906 -5.84375 32.125 -7.015625 33.6875 -8.265625 L 33.6875 -30.40625 C 33.6875 -32.539062 33.425781 -34.085938 32.90625 -35.046875 C 32.382812 -36.003906 31.238281 -36.875 29.46875 -37.65625 L 29.46875 -37.8125 L 44.046875 -37.8125 L 43.578125 -32.4375 Z M 43.578125 -2.5 "/></g></g><g style="fill:#be3535;fill-opacity:1;"><g transform="translate(239.529234, 86.150205)"><path style="stroke:none" d="M 10.140625 -43.96875 C 8.523438 -43.96875 7.171875 -44.523438 6.078125 -45.640625 C 4.984375 -46.765625 4.4375 -48.132812 4.4375 -49.75 C 4.4375 -51.351562 4.984375 -52.703125 6.078125 -53.796875 C 7.171875 -54.890625 8.523438 -55.4375 10.140625 -55.4375 C 11.742188 -55.4375 13.09375 -54.890625 14.1875 -53.796875 C 15.28125 -52.703125 15.828125 -51.351562 15.828125 -49.75 C 15.828125 -48.132812 15.28125 -46.765625 14.1875 -45.640625 C 13.09375 -44.523438 11.742188 -43.96875 10.140625 -43.96875 Z M 5.0625 0 L 5.53125 -5.375 L 5.53125 -35.3125 C 5.007812 -35.675781 4.296875 -35.988281 3.390625 -36.25 C 2.484375 -36.507812 1.613281 -36.664062 0.78125 -36.71875 L 0.78125 -37.03125 L 15.828125 -38.203125 L 15.4375 -32.4375 L 15.4375 -7.25 C 15.4375 -5.164062 15.65625 -3.628906 16.09375 -2.640625 C 16.539062 -1.660156 17.335938 -0.78125 18.484375 0 Z M 5.0625 0 "/></g></g><g style="fill:#be3535;fill-opacity:1;"><g transform="translate(260.347503, 86.150205)"><path style="stroke:none" d="M 27.984375 -38.203125 C 29.546875 -38.203125 30.976562 -37.890625 32.28125 -37.265625 L 24.484375 -24.328125 L 24.171875 -24.328125 C 25.054688 -26.660156 25.210938 -28.644531 24.640625 -30.28125 C 24.066406 -31.925781 23.050781 -32.75 21.59375 -32.75 C 19.832031 -32.75 18.441406 -31.75 17.421875 -29.75 C 16.410156 -27.75 15.75 -25.394531 15.4375 -22.6875 L 15.4375 -7.25 C 15.4375 -5.164062 15.65625 -3.628906 16.09375 -2.640625 C 16.539062 -1.660156 17.335938 -0.78125 18.484375 0 L 5.140625 0 L 5.53125 -5.375 L 5.53125 -35.3125 C 5.007812 -35.675781 4.296875 -35.988281 3.390625 -36.25 C 2.484375 -36.507812 1.613281 -36.664062 0.78125 -36.71875 L 0.78125 -37.03125 L 15.828125 -38.203125 L 15.4375 -32.4375 L 15.4375 -29.9375 L 16.453125 -29.9375 C 17.335938 -32.4375 18.789062 -34.4375 20.8125 -35.9375 C 22.84375 -37.445312 25.234375 -38.203125 27.984375 -38.203125 Z M 27.984375 -38.203125 "/></g></g><g style="fill:#be3535;fill-opacity:1;"><g transform="translate(206.749136, 116.173776)"><path style="stroke:none" d="M 9.875 0.296875 C 8.15625 0.296875 6.5625 0.0507812 5.09375 -0.4375 C 3.632812 -0.925781 2.441406 -1.535156 1.515625 -2.265625 L 3.953125 -6.296875 L 4.046875 -6.296875 C 4.046875 -5.054688 4.425781 -3.984375 5.1875 -3.078125 C 5.957031 -2.179688 6.921875 -1.5 8.078125 -1.03125 C 9.242188 -0.570312 10.390625 -0.34375 11.515625 -0.34375 C 13.023438 -0.34375 14.066406 -0.710938 14.640625 -1.453125 C 15.222656 -2.191406 15.515625 -3.070312 15.515625 -4.09375 C 15.515625 -5.539062 15.035156 -6.585938 14.078125 -7.234375 C 13.128906 -7.890625 11.796875 -8.347656 10.078125 -8.609375 C 7.847656 -8.953125 6.15625 -9.5 5 -10.25 C 3.84375 -11.007812 3.0625 -11.832031 2.65625 -12.71875 C 2.25 -13.601562 2.046875 -14.4375 2.046875 -15.21875 C 2.046875 -16.519531 2.414062 -17.625 3.15625 -18.53125 C 3.894531 -19.445312 4.882812 -20.144531 6.125 -20.625 C 7.375 -21.101562 8.765625 -21.34375 10.296875 -21.34375 C 11.921875 -21.34375 13.4375 -21.101562 14.84375 -20.625 C 16.25 -20.144531 17.375 -19.554688 18.21875 -18.859375 L 15.46875 -14.78125 L 15.390625 -14.78125 C 15.441406 -16.050781 15.117188 -17.117188 14.421875 -17.984375 C 13.734375 -18.859375 12.859375 -19.523438 11.796875 -19.984375 C 10.742188 -20.453125 9.722656 -20.6875 8.734375 -20.6875 C 7.773438 -20.6875 7.035156 -20.5 6.515625 -20.125 C 5.992188 -19.75 5.625 -19.285156 5.40625 -18.734375 C 5.1875 -18.179688 5.078125 -17.628906 5.078125 -17.078125 C 5.078125 -16.066406 5.367188 -15.265625 5.953125 -14.671875 C 6.535156 -14.078125 7.265625 -13.632812 8.140625 -13.34375 C 9.023438 -13.050781 9.921875 -12.832031 10.828125 -12.6875 C 13.023438 -12.34375 14.675781 -11.820312 15.78125 -11.125 C 16.882812 -10.425781 17.625 -9.65625 18 -8.8125 C 18.375 -7.976562 18.5625 -7.171875 18.5625 -6.390625 C 18.5625 -4.453125 17.785156 -2.851562 16.234375 -1.59375 C 14.679688 -0.332031 12.5625 0.296875 9.875 0.296875 Z M 9.875 0.296875 "/></g></g><g style="fill:#be3535;fill-opacity:1;"><g transform="translate(226.830674, 116.173776)"><path style="stroke:none" d="M 21.828125 -4.34375 L 22.03125 -4.171875 C 21.394531 -2.953125 20.242188 -1.898438 18.578125 -1.015625 C 16.910156 -0.140625 14.960938 0.296875 12.734375 0.296875 C 10.734375 0.296875 8.898438 -0.101562 7.234375 -0.90625 C 5.566406 -1.71875 4.234375 -2.898438 3.234375 -4.453125 C 2.234375 -6.003906 1.734375 -7.867188 1.734375 -10.046875 C 1.734375 -12.390625 2.296875 -14.398438 3.421875 -16.078125 C 4.554688 -17.765625 6.046875 -19.0625 7.890625 -19.96875 C 9.734375 -20.882812 11.695312 -21.34375 13.78125 -21.34375 C 15.570312 -21.34375 17.0625 -21.03125 18.25 -20.40625 C 19.445312 -19.78125 20.328125 -19.007812 20.890625 -18.09375 C 21.453125 -17.1875 21.722656 -16.269531 21.703125 -15.34375 C 21.691406 -14.414062 21.410156 -13.640625 20.859375 -13.015625 C 20.316406 -12.390625 19.492188 -12.078125 18.390625 -12.078125 L 5.953125 -12.078125 C 5.984375 -10.109375 6.351562 -8.328125 7.0625 -6.734375 C 7.769531 -5.140625 8.769531 -3.882812 10.0625 -2.96875 C 11.351562 -2.0625 12.867188 -1.609375 14.609375 -1.609375 C 15.390625 -1.609375 16.25 -1.707031 17.1875 -1.90625 C 18.132812 -2.113281 19.035156 -2.421875 19.890625 -2.828125 C 20.742188 -3.234375 21.390625 -3.738281 21.828125 -4.34375 Z M 12.21875 -20.5625 C 10.445312 -20.5625 8.988281 -19.878906 7.84375 -18.515625 C 6.695312 -17.148438 6.066406 -15.238281 5.953125 -12.78125 L 16.65625 -12.90625 C 17.175781 -12.90625 17.535156 -13.164062 17.734375 -13.6875 C 17.941406 -14.207031 17.976562 -14.84375 17.84375 -15.59375 C 17.707031 -16.351562 17.414062 -17.117188 16.96875 -17.890625 C 16.519531 -18.660156 15.894531 -19.296875 15.09375 -19.796875 C 14.300781 -20.304688 13.34375 -20.5625 12.21875 -20.5625 Z M 12.21875 -20.5625 "/></g></g><g style="fill:#be3535;fill-opacity:1;"><g transform="translate(250.172203, 116.173776)"><path style="stroke:none" d="M 31.78125 0 L 32.03125 -3 L 32.03125 -13.34375 C 32.03125 -15 31.820312 -16.265625 31.40625 -17.140625 C 30.988281 -18.023438 30.457031 -18.632812 29.8125 -18.96875 C 29.175781 -19.300781 28.523438 -19.46875 27.859375 -19.46875 C 26.671875 -19.46875 25.566406 -19.128906 24.546875 -18.453125 C 23.535156 -17.773438 22.46875 -17.015625 21.34375 -16.171875 C 21.40625 -15.796875 21.457031 -15.375 21.5 -14.90625 C 21.539062 -14.445312 21.5625 -13.957031 21.5625 -13.4375 L 21.5625 -4.046875 C 21.5625 -2.878906 21.679688 -2.019531 21.921875 -1.46875 C 22.171875 -0.925781 22.613281 -0.4375 23.25 0 L 17.296875 0 L 17.5625 -3 L 17.5625 -13.34375 C 17.5625 -15 17.347656 -16.265625 16.921875 -17.140625 C 16.503906 -18.023438 15.976562 -18.632812 15.34375 -18.96875 C 14.707031 -19.300781 14.054688 -19.46875 13.390625 -19.46875 C 12.234375 -19.46875 11.164062 -19.148438 10.1875 -18.515625 C 9.21875 -17.878906 8.179688 -17.15625 7.078125 -16.34375 L 7.078125 -4.046875 C 7.078125 -2.878906 7.203125 -2.019531 7.453125 -1.46875 C 7.703125 -0.925781 8.144531 -0.4375 8.78125 0 L 2.828125 0 L 3.09375 -3 L 3.09375 -19.6875 C 2.800781 -19.894531 2.398438 -20.070312 1.890625 -20.21875 C 1.378906 -20.363281 0.894531 -20.445312 0.4375 -20.46875 L 0.4375 -20.640625 L 7.296875 -21.296875 L 7.078125 -18.078125 L 7.078125 -17.296875 C 7.867188 -17.878906 8.710938 -18.484375 9.609375 -19.109375 C 10.503906 -19.734375 11.472656 -20.257812 12.515625 -20.6875 C 13.554688 -21.125 14.644531 -21.34375 15.78125 -21.34375 C 16.476562 -21.34375 17.179688 -21.222656 17.890625 -20.984375 C 18.597656 -20.753906 19.25 -20.320312 19.84375 -19.6875 C 20.4375 -19.050781 20.878906 -18.140625 21.171875 -16.953125 L 21.171875 -17 C 21.953125 -17.570312 22.8125 -18.195312 23.75 -18.875 C 24.695312 -19.5625 25.710938 -20.144531 26.796875 -20.625 C 27.878906 -21.101562 29.03125 -21.34375 30.25 -21.34375 C 31.125 -21.34375 32.007812 -21.140625 32.90625 -20.734375 C 33.800781 -20.328125 34.546875 -19.554688 35.140625 -18.421875 C 35.734375 -17.296875 36.03125 -15.632812 36.03125 -13.4375 L 36.03125 -4.046875 C 36.03125 -2.878906 36.15625 -2.019531 36.40625 -1.46875 C 36.65625 -0.925781 37.097656 -0.4375 37.734375 0 Z M 31.78125 0 "/></g></g><g style="fill:#be3535;fill-opacity:1;"><g transform="translate(226.965254, 145.722129)"><path style="stroke:none" d="M 16.828125 0.375 C 13.953125 0.375 11.410156 -0.1875 9.203125 -1.3125 C 7.003906 -2.4375 5.285156 -3.992188 4.046875 -5.984375 C 2.804688 -7.972656 2.1875 -10.273438 2.1875 -12.890625 C 2.1875 -15.804688 2.914062 -18.300781 4.375 -20.375 C 5.832031 -22.457031 7.757812 -24.050781 10.15625 -25.15625 C 12.5625 -26.269531 15.1875 -26.828125 18.03125 -26.828125 C 20.4375 -26.828125 22.457031 -26.460938 24.09375 -25.734375 C 25.738281 -25.003906 26.976562 -24.148438 27.8125 -23.171875 L 22.34375 -14.96875 L 22.234375 -14.96875 C 23.078125 -17.445312 23.269531 -19.492188 22.8125 -21.109375 C 22.351562 -22.734375 21.539062 -23.957031 20.375 -24.78125 C 19.207031 -25.601562 17.953125 -26.015625 16.609375 -26.015625 C 15.335938 -26.015625 14.132812 -25.648438 13 -24.921875 C 11.875 -24.191406 10.972656 -23.085938 10.296875 -21.609375 C 9.617188 -20.128906 9.28125 -18.265625 9.28125 -16.015625 C 9.28125 -13.460938 9.742188 -11.144531 10.671875 -9.0625 C 11.609375 -6.988281 12.914062 -5.34375 14.59375 -4.125 C 16.269531 -2.90625 18.21875 -2.296875 20.4375 -2.296875 C 21.5625 -2.296875 22.804688 -2.503906 24.171875 -2.921875 C 25.546875 -3.335938 26.648438 -4.078125 27.484375 -5.140625 L 27.75 -4.921875 C 26.957031 -3.460938 25.640625 -2.210938 23.796875 -1.171875 C 21.953125 -0.140625 19.628906 0.375 16.828125 0.375 Z M 16.828125 0.375 "/></g></g><g style="fill:#be3535;fill-opacity:1;"><g transform="translate(256.691304, 145.722129)"><path style="stroke:none" d="M 30.546875 -1.75 C 30.941406 -1.488281 31.441406 -1.273438 32.046875 -1.109375 C 32.648438 -0.953125 33.171875 -0.835938 33.609375 -0.765625 L 33.609375 -0.546875 L 23.609375 0.265625 L 23.609375 -4.484375 C 22.765625 -3.828125 21.734375 -3.113281 20.515625 -2.34375 C 19.296875 -1.582031 17.9375 -0.9375 16.4375 -0.40625 C 14.945312 0.113281 13.363281 0.375 11.6875 0.375 C 10.882812 0.375 10.019531 0.238281 9.09375 -0.03125 C 8.164062 -0.300781 7.300781 -0.789062 6.5 -1.5 C 5.695312 -2.207031 5.039062 -3.207031 4.53125 -4.5 C 4.019531 -5.800781 3.765625 -7.488281 3.765625 -9.5625 L 3.765625 -21.3125 C 3.765625 -22.800781 3.582031 -23.882812 3.21875 -24.5625 C 2.851562 -25.238281 2.050781 -25.847656 0.8125 -26.390625 L 0.8125 -26.5 L 11.03125 -26.5 L 10.703125 -22.734375 L 10.703125 -9.671875 C 10.703125 -7.628906 10.921875 -6.070312 11.359375 -5 C 11.796875 -3.925781 12.359375 -3.1875 13.046875 -2.78125 C 13.742188 -2.382812 14.492188 -2.1875 15.296875 -2.1875 C 17.046875 -2.1875 18.59375 -2.566406 19.9375 -3.328125 C 21.289062 -4.097656 22.515625 -4.921875 23.609375 -5.796875 L 23.609375 -21.3125 C 23.609375 -22.800781 23.425781 -23.882812 23.0625 -24.5625 C 22.695312 -25.238281 21.894531 -25.847656 20.65625 -26.390625 L 20.65625 -26.5 L 30.875 -26.5 L 30.546875 -22.734375 Z M 30.546875 -1.75 "/></g></g><g style="fill:#be3535;fill-opacity:1;"><g transform="translate(291.116687, 145.722129)"><path style="stroke:none" d="M 11.3125 -5.296875 C 11.3125 -3.835938 11.492188 -2.695312 11.859375 -1.875 C 12.222656 -1.0625 13.078125 -0.507812 14.421875 -0.21875 L 14.421875 0 L 3.875 0 L 4.375 -3.390625 L 4.375 -35.90625 C 4.375 -36.988281 3.988281 -37.53125 3.21875 -37.53125 C 2.457031 -37.53125 1.203125 -37.273438 -0.546875 -36.765625 L -0.546875 -37.09375 L 11.578125 -42.78125 L 11.3125 -40.328125 Z M 11.3125 -5.296875 "/></g></g><g style="fill:#be3535;fill-opacity:1;"><g transform="translate(306.362215, 145.722129)"><path style="stroke:none" d="M 16.78125 -26.828125 C 20.164062 -26.828125 22.984375 -26.257812 25.234375 -25.125 C 27.492188 -24 29.1875 -22.453125 30.3125 -20.484375 C 31.445312 -18.523438 32.015625 -16.285156 32.015625 -13.765625 C 32.015625 -10.847656 31.3125 -8.332031 29.90625 -6.21875 C 28.507812 -4.113281 26.609375 -2.488281 24.203125 -1.34375 C 21.796875 -0.195312 19.066406 0.375 16.015625 0.375 C 14.992188 0.375 14.082031 0.300781 13.28125 0.15625 C 12.476562 0.0195312 11.75 -0.140625 11.09375 -0.328125 L 11.09375 6.5625 C 11.09375 8.019531 11.273438 9.09375 11.640625 9.78125 C 12.003906 10.46875 12.804688 11.085938 14.046875 11.640625 L 14.046875 11.796875 L 1.6875 10 L 1.6875 9.828125 C 2.632812 9.578125 3.28125 9.160156 3.625 8.578125 C 3.976562 7.992188 4.15625 7.03125 4.15625 5.6875 L 4.15625 -23.4375 C 3.789062 -23.695312 3.28125 -23.914062 2.625 -24.09375 C 1.96875 -24.28125 1.273438 -24.390625 0.546875 -24.421875 L 0.546875 -24.640625 C 2.472656 -25.191406 4.484375 -25.628906 6.578125 -25.953125 C 8.671875 -26.285156 10.617188 -26.515625 12.421875 -26.640625 C 14.234375 -26.765625 15.6875 -26.828125 16.78125 -26.828125 Z M 18.140625 -0.59375 C 20.328125 -0.59375 22.003906 -1.441406 23.171875 -3.140625 C 24.335938 -4.835938 24.921875 -7.414062 24.921875 -10.875 C 24.921875 -12.726562 24.726562 -14.546875 24.34375 -16.328125 C 23.957031 -18.117188 23.363281 -19.742188 22.5625 -21.203125 C 21.757812 -22.660156 20.722656 -23.816406 19.453125 -24.671875 C 18.179688 -25.523438 16.671875 -25.953125 14.921875 -25.953125 C 14.003906 -25.953125 13.226562 -25.859375 12.59375 -25.671875 C 11.957031 -25.492188 11.457031 -25.351562 11.09375 -25.25 L 11.09375 -3.5 C 12.144531 -2.65625 13.253906 -1.957031 14.421875 -1.40625 C 15.585938 -0.863281 16.828125 -0.59375 18.140625 -0.59375 Z M 18.140625 -0.59375 "/></g></g><g style="fill:#be3535;fill-opacity:1;"><g transform="translate(340.569029, 145.722129)"><path style="stroke:none" d="M 30.109375 -4.484375 C 30.109375 -3.023438 30.257812 -1.96875 30.5625 -1.3125 C 30.875 -0.65625 31.429688 -0.0546875 32.234375 0.484375 L 32.234375 0.65625 L 21.796875 -1.03125 C 21.796875 -1.03125 21.804688 -1.03125 21.828125 -1.03125 C 21.847656 -1.03125 21.859375 -1.050781 21.859375 -1.09375 C 20.984375 -0.613281 20 -0.25 18.90625 0 C 17.8125 0.25 16.628906 0.375 15.359375 0.375 C 12.691406 0.375 10.375 -0.128906 8.40625 -1.140625 C 6.445312 -2.160156 4.921875 -3.609375 3.828125 -5.484375 C 2.734375 -7.367188 2.1875 -9.566406 2.1875 -12.078125 C 2.1875 -14.734375 2.8125 -17.179688 4.0625 -19.421875 C 5.320312 -21.660156 7.21875 -23.453125 9.75 -24.796875 C 12.28125 -26.148438 15.476562 -26.828125 19.34375 -26.828125 C 21.09375 -26.828125 22.882812 -26.660156 24.71875 -26.328125 C 26.5625 -26.003906 28.359375 -25.5 30.109375 -24.8125 Z M 9.125 -15.25 C 9.125 -12.625 9.539062 -10.265625 10.375 -8.171875 C 11.21875 -6.078125 12.375 -4.414062 13.84375 -3.1875 C 15.320312 -1.96875 16.972656 -1.359375 18.796875 -1.359375 C 20.503906 -1.359375 21.925781 -1.976562 23.0625 -3.21875 C 23.09375 -3.507812 23.117188 -3.8125 23.140625 -4.125 C 23.160156 -4.4375 23.171875 -4.789062 23.171875 -5.1875 L 23.171875 -22.84375 C 22.328125 -23.789062 21.394531 -24.519531 20.375 -25.03125 C 19.351562 -25.539062 18.191406 -25.796875 16.890625 -25.796875 C 14.335938 -25.796875 12.40625 -24.828125 11.09375 -22.890625 C 9.78125 -20.960938 9.125 -18.414062 9.125 -15.25 Z M 9.125 -15.25 "/></g></g></g></svg>